<?xml version="1.0" standalone="no"?>
<!DOCTYPE svg PUBLIC "-//W3C//DTD SVG 20010904//EN"
 "http://www.w3.org/TR/2001/REC-SVG-20010904/DTD/svg10.dtd">
<svg version="1.0" xmlns="http://www.w3.org/2000/svg"
 width="700.000000pt" height="700.000000pt" viewBox="0 0 700.000000 700.000000"
 preserveAspectRatio="xMidYMid meet">
<metadata>
Created by potrace 1.11, written by Peter Selinger 2001-2013
</metadata>
<g transform="translate(0.000000,700.000000) scale(0.100000,-0.100000)"
fill="#000000" stroke="none">
<path d="M3225 6570 c-531 -54 -1002 -219 -1422 -500 -206 -137 -294 -209
-479 -394 -185 -186 -257 -273 -396 -481 -256 -383 -416 -816 -485 -1305 -24
-175 -24 -604 1 -780 48 -345 134 -633 281 -937 95 -198 181 -339 309 -510
481 -640 1170 -1061 1954 -1192 644 -108 1314 -7 1893 287 940 478 1566 1388
1675 2435 22 212 15 548 -16 752 -53 362 -179 737 -346 1038 -483 866 -1320
1438 -2299 1572 -141 19 -538 28 -670 15z m1560 -1349 c196 -41 372 -133 520
-273 549 -519 410 -1416 -270 -1748 -380 -185 -815 -132 -1157 142 -15 12 -29
20 -31 17 -4 -5 -193 -446 -297 -694 -118 -282 -232 -459 -391 -610 -368 -347
-880 -387 -1311 -102 -237 156 -398 380 -470 652 -32 123 -36 339 -9 473 28
132 68 241 139 377 l58 110 403 9 c221 5 404 6 407 4 2 -3 -25 -72 -61 -154
-109 -245 -193 -466 -204 -536 -25 -153 36 -275 168 -337 48 -22 69 -26 146
-26 124 1 189 27 270 109 59 59 64 70 179 336 101 235 244 563 666 1532 45
103 102 214 136 265 69 104 187 223 283 287 128 85 318 162 446 179 90 12 295
6 380 -12z m-1777 -829 c67 -158 123 -290 122 -294 0 -11 -400 -851 -409 -861
-4 -4 -63 119 -131 273 l-123 280 -403 0 c-222 0 -404 3 -404 6 0 7 362 809
386 857 l15 27 412 0 412 0 123 -288z m1152 -2062 c128 -289 237 -533 242
-542 8 -17 -14 -18 -395 -18 l-404 0 -48 105 -48 105 178 393 c98 215 189 416
203 445 13 30 28 50 32 45 4 -4 112 -244 240 -533z"/>
<path d="M4443 4469 c-67 -26 -137 -94 -171 -167 -38 -82 -38 -193 1 -273 32
-66 99 -132 165 -162 73 -33 200 -30 269 6 71 37 114 76 146 134 49 92 52 215
7 309 -29 58 -117 138 -176 158 -66 22 -176 20 -241 -5z"/>
</g>
</svg>
